<?xml version="1.0" encoding="UTF-8" standalone="no"?>
<!-- Created with Inkscape (http://www.inkscape.org/) -->

<svg
   width="291.42236mm"
   height="291.63931mm"
   viewBox="0 0 291.42236 291.63931"
   version="1.1"
   id="svg5"
   xml:space="preserve"
   xmlns:inkscape="http://www.inkscape.org/namespaces/inkscape"
   xmlns:sodipodi="http://sodipodi.sourceforge.net/DTD/sodipodi-0.dtd"
   xmlns="http://www.w3.org/2000/svg"
   xmlns:svg="http://www.w3.org/2000/svg"><sodipodi:namedview
     id="namedview7"
     pagecolor="#ffffff"
     bordercolor="#000000"
     borderopacity="0.25"
     inkscape:showpageshadow="2"
     inkscape:pageopacity="0.0"
     inkscape:pagecheckerboard="0"
     inkscape:deskcolor="#d1d1d1"
     inkscape:document-units="mm"
     showgrid="false" /><defs
     id="defs2" /><g
     inkscape:label="Layer 1"
     inkscape:groupmode="layer"
     id="layer1"
     transform="translate(473.91941,268.78002)"><path
       sodipodi:type="star"
       style="fill:#181e2a;fill-opacity:1;stroke-width:0.264583"
       id="path7862"
       inkscape:flatsided="false"
       sodipodi:sides="17"
       sodipodi:cx="-354.79626"
       sodipodi:cy="77.158691"
       sodipodi:r1="96.783607"
       sodipodi:r2="48.391804"
       sodipodi:arg1="0.77735141"
       sodipodi:arg2="0.96215098"
       inkscape:rounded="0"
       inkscape:randomized="0"
       d="m -285.81145,145.04214 -41.31648,-28.18169 12.13576,48.51786 -28.34607,-41.20387 -6.21041,49.62549 -11.54737,-48.66125 -23.71784,44.03094 6.81087,-49.54665 -38.02203,32.48975 24.24926,-43.74051 -47.19113,16.56066 38.41265,-32.02697 -49.98682,-1.605054 47.38821,-15.988006 -46.03151,-19.553992 49.96372,2.210224 -35.85939,-34.862055 45.79136,20.109952 -20.84426,-45.4618043 35.43462,35.2937183 -3.014,-49.921685 20.29224,45.710873 15.22333,-47.639365 2.40927,49.954521 31.40465,-38.9230852 -15.79907,47.4515342 43.34461,-24.950027 -31.87367,38.539954 49.43063,-7.60733 -43.64355,24.423341 48.84078,10.76278 -49.51912,7.008219 41.6547,27.679317 -48.70687,-11.3534 z"
       inkscape:transform-center-x="-0.73316587"
       inkscape:transform-center-y="0.51577882"
       transform="matrix(1.5142131,0,0,1.5142131,208.29575,-240.31086)"
       inkscape:export-filename="./path7862.svg"
       inkscape:export-xdpi="96"
       inkscape:export-ydpi="96" /></g></svg>
